<svg width="48" height="48" viewBox="0 0 48 48" fill="none" xmlns="http://www.w3.org/2000/svg">
<rect width="48" height="48" fill="#307FE4"/>
<path d="M25.4111 12.8037C26.4615 12.8037 27.3129 11.9522 27.3129 10.9018C27.3129 9.85148 26.4615 9 25.4111 9C24.3608 9 23.5093 9.85148 23.5093 10.9018C23.5093 11.9522 24.3608 12.8037 25.4111 12.8037Z" fill="white"/>
<path d="M18.7546 11.6626L18.7545 20.6898C20.2594 19.3264 22.179 18.5092 24.2699 18.5092C29.1015 18.5092 33.0183 22.873 33.0183 28.256C33.0183 28.2971 33.018 28.3381 33.0176 28.379C33.0181 28.4172 33.0183 28.4555 33.0183 28.4938C33.0176 34.0565 28.7609 38.2882 23.5091 38.2882C18.3501 38.2882 14.1506 34.0565 14.004 28.7792L14 28.779V14.0399C14 12.7188 15.0767 11.6626 16.3773 11.6626H18.7546ZM23.414 22.8834C20.6831 22.8834 18.4693 25.3314 18.4693 28.3511C18.4693 31.3709 20.6831 33.8189 23.414 33.8189C26.145 33.8189 28.3588 31.3709 28.3588 28.3511C28.3588 25.3314 26.145 22.8834 23.414 22.8834Z" fill="white"/>
</svg>
