<svg xmlns="http://www.w3.org/2000/svg" width="3805.56" height="3805.56" viewBox="0 0 3805.56 3805.56">
  <g id="Layer_x0020_1" transform="translate(-2355.54 -3260.55)">
    <circle id="Ellipse_803" data-name="Ellipse 803" cx="1902.78" cy="1902.78" r="1902.78" transform="translate(2355.54 3260.55)" fill="#005c56"/>
    <path id="Path_2177" data-name="Path 2177" d="M4448.76,4024.67a236.765,236.765,0,0,0-71.69,11.43l-50.15,16.02-.01-150.44v-.46a58.04,58.04,0,0,0-116.08,0v187.84L3496.52,4316.6c-116.28,37.07-203.97,154.48-203.97,273.09V6091.51c0,115.32,84.86,202.31,197.38,202.31a236.5,236.5,0,0,0,71.7-11.43l222.01-70.78V6089.56l-257.19,81.96c-64.85,20.66-117.82-16.22-117.82-80V4589.7c0-67.82,55.25-140.62,123.06-162.22l880.54-280.51a121.457,121.457,0,0,1,36.52-6c48.6,0,81.23,34.52,81.23,85.92v1501.82c0,29.94-10.74,60.74-28.53,87.8h15.57v147.82c77-53.83,129.02-144.25,129.02-235.62V4226.889c.03-115.32-84.76-202.24-197.28-202.24v.02Z" fill="#fff" fill-rule="evenodd"/>
    <path id="Path_2179" data-name="Path 2179" d="M4880.45,4251.15a236.252,236.252,0,0,0-71.63,11.41l-879.68,279.89c-116.24,36.97-203.84,154.14-203.84,272.56v561.98l-315.98-168.98.87,131.99,315.11,172.46v801.12c0,115,84.78,201.8,197.2,201.8a236.862,236.862,0,0,0,71.63-11.4l879.68-279.89c116.17-36.97,203.83-154.14,203.83-272.49l.01-1498.59c0-115.07-84.78-201.87-197.2-201.87v.02ZM4457.42,6234.69l-498.43,158.64c-64.79,20.54-117.7-16.18-117.7-79.76V4815c0-67.74,55.13-140.37,122.94-161.93l502.31-159.78-9.13,1741.39.01.01Zm504.26-283.09c0,67.67-55.2,140.31-122.94,161.86l-98.93,31.42,9.12-1741.4,95.04-30.28a121.821,121.821,0,0,1,36.49-5.98c48.56,0,81.22,34.5,81.22,85.8V5951.6h0Z" fill="#e4b651" fill-rule="evenodd"/>
  </g>
</svg>
